<svg xmlns="http://www.w3.org/2000/svg" width="754" height="151" viewBox="0 0 754 151"><g fill="#FFF" fill-rule="evenodd"><path d="M268 31h16.419v74.255H349L335.566 120H268zM64.002 84.113H28.125v-.01c-.234.007-.468.01-.703.01-14.368 0-26.016-11.89-26.016-26.557C1.406 42.89 13.054 31 27.422 31c.235 0 .47.003.703.01V31H90L71.719 48.226H27.405c-5.039 0-9.124 4.177-9.124 9.33 0 5.154 4.085 9.331 9.124 9.331h38.689v.086C79.475 68.07 90 79.502 90 93.443 90 108.11 78.352 120 63.984 120c-.71 0-1.413-.029-2.109-.086V120H0l19.688-17.226h44.314c5.038 0 9.123-4.177 9.123-9.33 0-5.154-4.085-9.331-9.123-9.331zM150.469 31.015V31h59.062v.015c8.372.366 15.096 7.23 15.454 15.775H225v55.984h-.015c.01.238.015.477.015.718 0 8.877-6.863 16.117-15.469 16.493V120H150.47v-.015c-8.606-.376-15.469-7.616-15.469-16.493 0-.24.005-.48.015-.718H135V46.79h.015c.358-8.546 7.082-15.41 15.454-15.775zM161.543 46.8c-5.233.23-9.435 4.547-9.659 9.923h-.009v35.216h.01c-.007.15-.01.3-.01.451 0 5.584 4.29 10.138 9.668 10.375v.01h36.914v-.01c5.378-.237 9.668-4.791 9.668-10.375 0-.151-.003-.302-.01-.451h.01V56.723h-.01c-.223-5.376-4.425-9.693-9.658-9.923v-.01h-36.914v.01zM409.875 55.403V72.63h56.25V55.403c0-5.55-4.407-10.048-9.844-10.048H419.72c-5.437 0-9.844 4.499-9.844 10.048zM466.125 120V85.548h-56.25V120H393V48.226h.015a17.14 17.14 0 0 1-.015-.718C393 38.391 400.24 31 409.172 31c.235 0 .47.005.703.015V31h57.656v.015c8.606.376 15.469 7.616 15.469 16.493 0 .24-.005.48-.015.718H483V120h-16.875zM677.875 55.403V72.63h56.25V55.403c0-5.55-4.407-10.048-9.844-10.048H687.72c-5.437 0-9.844 4.499-9.844 10.048zM734.125 120V85.548h-56.25V120H661V48.226h.015a17.14 17.14 0 0 1-.015-.718C661 38.391 668.24 31 677.172 31c.235 0 .47.005.703.015V31h57.656v.015c8.606.376 15.469 7.616 15.469 16.493 0 .24-.005.48-.015.718H751V120h-16.875zM601.125 98.457V31H618v89h-16.875v-.149l-56.25-65.883V120H528V31h16.875z"/></g></svg>